<svg width="583" height="607" viewBox="0 0 583 607" fill="none" xmlns="http://www.w3.org/2000/svg">
<g filter="url(#filter0_d_248_5)">
<path d="M348.5 0.5C249.917 42.2399 191.542 60.7479 82 83L221 113.5C266.046 90.795 290.025 76.5927 329.5 47.5C405.662 144.942 456.953 174.395 548.5 222L482.5 274V349L579 210C508.94 103.73 459.733 56.3181 348.5 0.5Z" fill="#F0B90B"/>
<path d="M348.5 599C490.495 541.735 526.234 473.058 548.5 316C488.462 416.743 442.194 465.874 348.5 547C246.857 439.388 186.168 388.16 49 368C138.295 334.452 201.264 233.078 82 83C73.3693 207.281 54.2158 272.633 4.5 384.5C138.637 466.376 213.973 513.448 348.5 599Z" fill="#F0B90B"/>
<path d="M455 206L387.5 174C356.004 166.45 337.763 161.666 303.5 151.5C257.234 191.756 227.702 213.115 170 249.5L241 264L321.5 206L413 222L455 206Z" fill="#F0B90B"/>
<path d="M247.5 430L321.5 463.5L437.5 368L447 316L241 281.5C266.071 302.01 279.664 313.777 303.5 335L402 349C356.903 391.696 335.382 418.366 247.5 430Z" fill="#F0B90B"/>
</g>
<defs>
<filter id="filter0_d_248_5" x="0.5" y="0.5" width="582.5" height="606.5" filterUnits="userSpaceOnUse" color-interpolation-filters="sRGB">
<feFlood flood-opacity="0" result="BackgroundImageFix"/>
<feColorMatrix in="SourceAlpha" type="matrix" values="0 0 0 0 0 0 0 0 0 0 0 0 0 0 0 0 0 0 127 0" result="hardAlpha"/>
<feOffset dy="4"/>
<feGaussianBlur stdDeviation="2"/>
<feComposite in2="hardAlpha" operator="out"/>
<feColorMatrix type="matrix" values="0 0 0 0 0 0 0 0 0 0 0 0 0 0 0 0 0 0 0.25 0"/>
<feBlend mode="normal" in2="BackgroundImageFix" result="effect1_dropShadow_248_5"/>
<feBlend mode="normal" in="SourceGraphic" in2="effect1_dropShadow_248_5" result="shape"/>
</filter>
</defs>
</svg>
